<svg xmlns="http://www.w3.org/2000/svg" xmlns:xlink="http://www.w3.org/1999/xlink" id="Layer_1" x="0" y="0" enable-background="new 0 0 17 13.6" version="1.1" viewBox="0 0 17 13.6" xml:space="preserve"><polygon fill="#121212" points="3.4 6.8 1.7 5.1 0 6.8 1.7 8.5 3.4 6.8 5.1 8.5 6.8 6.8 5.1 5.1"/><rect width="2.4" height="2.4" x="7.3" y="5.6" fill="#121212" transform="matrix(0.7071 -0.7071 0.7071 0.7071 -2.3146 7.988)"/><polygon fill="#121212" points="15.3 8.5 17 6.8 15.3 5.1 15.3 5.1 13.6 3.4 13.6 3.4 11.9 1.7 11.9 1.7 11.3 1.1 11.3 1.1 10.2 0 8.5 1.7 10.2 3.4 10.2 3.4 10.7 3.9 11.9 5.1 11.9 5.1 11.9 5.1 10.2 6.8 11.9 8.5 11.9 8.5 11.9 8.5 10.6 9.8 10.2 10.2 10.2 10.2 9.6 10.8 9.6 10.8 8.5 11.9 10.2 13.6 11.3 12.5 11.9 11.9 11.9 11.9 12.4 11.3 12.5 11.3 13.6 10.2 13.6 10.2 15.3 8.5"/></svg>