<svg xmlns="http://www.w3.org/2000/svg" width="52" height="52" fill="none" viewBox="0 0 52 52"><rect width="48" height="48" x="4" y="4" fill="url(#paint0_linear_610_345)"/><g clip-path="url(#clip0_610_345)"><path stroke="#fff" stroke-linecap="round" stroke-linejoin="round" stroke-miterlimit="10" d="M11 20.9999H31"/><path stroke="#fff" stroke-linecap="round" stroke-linejoin="round" stroke-miterlimit="10" d="M11 26.9999H31"/><path stroke="#fff" stroke-linecap="round" stroke-linejoin="round" stroke-miterlimit="10" d="M11 32.9999H21"/><path stroke="#fff" stroke-linecap="round" stroke-linejoin="round" stroke-miterlimit="10" d="M21 46.9999H1V6.99988H11.5"/><path stroke="#fff" stroke-linecap="round" stroke-linejoin="round" stroke-miterlimit="10" d="M30.5 6.99988H41V22.9999"/><path stroke="#fff" stroke-linecap="round" stroke-linejoin="round" stroke-miterlimit="10" d="M21 42.9999H5V12.9999"/><path stroke="#fff" stroke-linecap="round" stroke-linejoin="round" stroke-miterlimit="10" d="M37 12.9999V24.9999"/><path stroke="#fff" stroke-linecap="round" stroke-linejoin="round" stroke-miterlimit="10" d="M25 4.99988V0.999878H17V4.99988H12L10 12.9999H32L30 4.99988H25Z"/><path stroke="#fff" stroke-linecap="round" stroke-linejoin="round" stroke-miterlimit="10" d="M26.222 41.5359L40.758 26.9999L45 31.2439L30.464 45.7779L25 46.9999L26.222 41.5359Z"/></g><defs><linearGradient id="paint0_linear_610_345" x1="28" x2="28" y1="4" y2="52" gradientUnits="userSpaceOnUse"><stop stop-color="#06F395"/><stop offset="1" stop-color="#06F395" stop-opacity="0"/></linearGradient><clipPath id="clip0_610_345"><rect width="48" height="48" fill="#fff"/></clipPath></defs></svg>